<?xml version="1.0" encoding="utf-8" standalone="no"?>
<!DOCTYPE svg PUBLIC "-//W3C//DTD SVG 1.1//EN"
  "http://www.w3.org/Graphics/SVG/1.1/DTD/svg11.dtd">
<svg height="345.6pt" version="1.1" viewBox="0 0 460.8 345.6" width="460.8pt" xmlns="http://www.w3.org/2000/svg" xmlns:xlink="http://www.w3.org/1999/xlink">
 <metadata>
  <rdf:RDF xmlns:cc="http://creativecommons.org/ns#" xmlns:dc="http://purl.org/dc/elements/1.1/" xmlns:rdf="http://www.w3.org/1999/02/22-rdf-syntax-ns#">
   <cc:Work>
    <dc:type rdf:resource="http://purl.org/dc/dcmitype/StillImage"/>
    <dc:date>2021-11-30T18:07:02.623571</dc:date>
    <dc:format>image/svg+xml</dc:format>
    <dc:creator>
     <cc:Agent>
      <dc:title>Matplotlib v3.4.3, https://matplotlib.org/</dc:title>
     </cc:Agent>
    </dc:creator>
   </cc:Work>
  </rdf:RDF>
 </metadata>
 <defs>
  <style type="text/css">*{stroke-linecap:butt;stroke-linejoin:round;}</style>
 </defs>
 <g id="figure_1">
  <g id="patch_1">
   <path d="M 0 345.6 
L 460.8 345.6 
L 460.8 0 
L 0 0 
z
" style="fill:#ffffff;"/>
  </g>
  <g id="axes_1">
   <g id="patch_2">
    <path clip-path="url(#p4f7563611e)" d="M 236.16 174.528 
L 236.261024 174.622428 
L 236.584499 174.905349 
L 237.136637 175.353393 
L 237.886359 175.914541 
L 238.763823 176.514285 
L 239.66527 177.06588 
L 240.464491 177.483391 
L 241.030311 177.695706 
L 241.248425 177.659405 
L 241.045104 177.36842 
L 240.409594 176.858756 
L 239.411847 176.207184 
L 238.212377 175.523627 
L 237.061714 174.93791 
L 236.288011 174.582373 
L 236.272742 174.572595 
L 237.415976 174.988838 
L 240.094181 175.860909 
L 244.614757 177.15879 
L 251.172316 178.790692 
L 259.811928 180.60928 
L 270.404211 182.425661 
L 282.636065 184.029725 
L 296.019348 185.214423 
L 309.917855 185.801008 
L 323.590905 185.661991 
L 336.249884 184.738781 
L 347.122505 183.051579 
L 355.518461 180.700076 
L 360.889807 177.854634 
L 362.879824 174.738913 
L 361.355198 171.605964 
L 356.41812 168.71072 
L 348.397009 166.282244 
L 337.816848 164.499166 
L 325.352284 163.471295 
L 311.768431 163.229588 
L 297.855532 163.725563 
L 284.364143 164.840036 
L 271.947224 166.399846 
L 261.114575 168.200274 
L 252.203509 170.030161 
L 245.367712 171.696504 
L 240.58421 173.045467 
L 237.676397 173.97733 
L 236.349465 174.453785 
L 236.233504 174.497067 
L 236.929035 174.181489 
L 238.049902 173.61895 
L 239.259203 172.940683 
L 240.29509 172.277918 
L 240.984785 171.744102 
L 241.246639 171.420992 
L 241.081542 171.350236 
L 240.556066 171.531218 
L 239.780484 171.925029 
L 238.885056 172.463548 
L 237.997775 173.062011 
L 237.226197 173.632984 
L 236.645101 174.099663 
L 236.290773 174.406579 
L 236.16168 174.52636 
z
" style="fill:#ffff00;opacity:0.2;"/>
   </g>
   <g id="patch_3">
    <path clip-path="url(#p4f7563611e)" d="M 236.16 174.528 
L 236.261024 174.622428 
L 236.584499 174.905349 
L 237.136637 175.353393 
L 237.886359 175.914541 
L 238.763823 176.514285 
L 239.66527 177.06588 
L 240.464491 177.483391 
L 241.030311 177.695706 
L 241.248425 177.659405 
L 241.045104 177.36842 
L 240.409594 176.858756 
L 239.411847 176.207184 
L 238.212377 175.523627 
L 237.061714 174.93791 
L 236.288011 174.582373 
L 236.272742 174.572595 
L 237.415976 174.988838 
L 240.094181 175.860909 
L 244.614757 177.15879 
L 251.172316 178.790692 
L 259.811928 180.60928 
L 270.404211 182.425661 
L 282.636065 184.029725 
L 296.019348 185.214423 
L 309.917855 185.801008 
L 323.590905 185.661991 
L 336.249884 184.738781 
L 347.122505 183.051579 
L 355.518461 180.700076 
L 360.889807 177.854634 
L 362.879824 174.738913 
L 361.355198 171.605964 
L 356.41812 168.71072 
L 348.397009 166.282244 
L 337.816848 164.499166 
L 325.352284 163.471295 
L 311.768431 163.229588 
L 297.855532 163.725563 
L 284.364143 164.840036 
L 271.947224 166.399846 
L 261.114575 168.200274 
L 252.203509 170.030161 
L 245.367712 171.696504 
L 240.58421 173.045467 
L 237.676397 173.97733 
L 236.349465 174.453785 
L 236.233504 174.497067 
L 236.929035 174.181489 
L 238.049902 173.61895 
L 239.259203 172.940683 
L 240.29509 172.277918 
L 240.984785 171.744102 
L 241.246639 171.420992 
L 241.081542 171.350236 
L 240.556066 171.531218 
L 239.780484 171.925029 
L 238.885056 172.463548 
L 237.997775 173.062011 
L 237.226197 173.632984 
L 236.645101 174.099663 
L 236.290773 174.406579 
L 236.16168 174.52636 
z
" style="fill:none;stroke:#ff0000;stroke-linejoin:miter;"/>
   </g>
  </g>
 </g>
 <defs>
  <clipPath id="p4f7563611e">
   <path d="M 369.216 174.528 
C 369.216 157.055246 365.774248 139.752393 359.087715 123.609673 
C 352.401182 107.466954 342.599903 92.798303 330.2448 80.4432 
C 317.889697 68.088097 303.221046 58.286818 287.078327 51.600285 
C 270.935607 44.913752 253.632754 41.472 236.16 41.472 
C 218.687246 41.472 201.384393 44.913752 185.241673 51.600285 
C 169.098954 58.286818 154.430303 68.088097 142.0752 80.4432 
C 129.720097 92.798303 119.918818 107.466954 113.232285 123.609673 
C 106.545752 139.752393 103.104 157.055246 103.104 174.528 
C 103.104 192.000754 106.545752 209.303607 113.232285 225.446327 
C 119.918818 241.589046 129.720097 256.257697 142.0752 268.6128 
C 154.430303 280.967903 169.098954 290.769182 185.241673 297.455715 
C 201.384393 304.142248 218.687246 307.584 236.16 307.584 
C 253.632754 307.584 270.935607 304.142248 287.078327 297.455715 
C 303.221046 290.769182 317.889697 280.967903 330.2448 268.6128 
C 342.599903 256.257697 352.401182 241.589046 359.087715 225.446327 
C 365.774248 209.303607 369.216 192.000754 369.216 174.528 
M 236.16 174.528 
C 236.16 174.528 236.16 174.528 236.16 174.528 
C 236.16 174.528 236.16 174.528 236.16 174.528 
C 236.16 174.528 236.16 174.528 236.16 174.528 
C 236.16 174.528 236.16 174.528 236.16 174.528 
C 236.16 174.528 236.16 174.528 236.16 174.528 
C 236.16 174.528 236.16 174.528 236.16 174.528 
C 236.16 174.528 236.16 174.528 236.16 174.528 
C 236.16 174.528 236.16 174.528 236.16 174.528 
C 236.16 174.528 236.16 174.528 236.16 174.528 
C 236.16 174.528 236.16 174.528 236.16 174.528 
C 236.16 174.528 236.16 174.528 236.16 174.528 
C 236.16 174.528 236.16 174.528 236.16 174.528 
C 236.16 174.528 236.16 174.528 236.16 174.528 
C 236.16 174.528 236.16 174.528 236.16 174.528 
C 236.16 174.528 236.16 174.528 236.16 174.528 
C 236.16 174.528 236.16 174.528 236.16 174.528 
M 369.216 174.528 
z
"/>
  </clipPath>
 </defs>
</svg>
